#!OML:ASF I:\Actors\actors\Patient Classification 1\Patient 1\Session 1\Subject1.ASF
:FULLY-SPECIFIED
:DEGREES
340
root -1.27391 17.6303 8.13508 6.65978 13.1999 -7.69571
lowerback 10.8828 1.09288 10.0707
upperback -10.6366 3.82071 1.80281
thorax -18.0163 0.626561 -4.52181
lowerneck -13.7766 -11.6929 -4.40513
upperneck 22.2859 -18.0151 9.87959
head 10.7922 -7.57044 1.65132
rclavicle 6.3785e-014 -2.5842e-014
rhumerus 83.2606 36.5744 -54.2753
rradius 101.475
rwrist 21.5157
rhand -20.4518 -33.4281
rfingers 7.12502
rthumb 5.90362 296.674
lclavicle 6.3785e-014 -2.5842e-014
lhumerus 54.1808 -7.45449 84.2597
lradius 129.044
lwrist 34.9406
lhand -43.9525 -29.9263
lfingers 7.12502
lthumb -16.7754 -0.631046
rfemur 0.256893 18.3978 31.0267
rtibia 3.02886
rfoot -16.8209 -28.1377
rtoes 15.1502
lfemur -6.04078 -26.2896 -3.77731
ltibia 4.37792
lfoot -7.89756 21.9075
ltoes -18.87
341
root -1.25967 17.6379 8.09596 6.56033 13.7521 -8.0002
lowerback 11.4079 0.926693 9.85345
upperback -10.2838 3.61997 2.01741
thorax -17.9616 0.593688 -4.12382
lowerneck -13.665 -11.6806 -4.49367
upperneck 21.6761 -17.9993 10.3254
head 10.6053 -7.55538 1.83137
rclavicle 2.8128e-014 7.15625e-014
rhumerus 79.7508 36.5686 -57.3082
rradius 99.5123
rwrist 20.0821
rhand -20.2982 -33.9127
rfingers 7.12502
rthumb 6.05196 296.194
lclavicle 2.8128e-014 7.15625e-014
lhumerus 52.0747 -8.68865 85.4298
lradius 125.713
lwrist 35.7331
lhand -43.8164 -30.2191
lfingers 7.12502
lthumb -16.6444 -0.912764
rfemur 0.0653661 18.1537 31.1925
rtibia 3.14284
rfoot -16.6682 -28.1643
rtoes 14.9186
lfemur -6.59789 -26.1664 -3.2842
ltibia 4.64965
lfoot -7.70328 21.2917
ltoes -19.0072
342
root -1.24611 17.6486 8.05194 6.46373 14.2696 -8.32773
lowerback 11.9386 0.770568 9.62765
upperback -9.88705 3.42841 2.24748
thorax -17.8511 0.570442 -3.70356
lowerneck -13.5798 -11.6532 -4.56967
upperneck 21.0125 -17.9554 10.7806
head 10.4029 -7.52824 2.01498
rclavicle 1.46107e-014 2.38542e-014
rhumerus 75.894 36.4138 -60.5844
rradius 97.243
rwrist 18.6304
rhand -20.2512 -34.4607
rfingers 7.12502
rthumb 6.09728 295.647
lclavicle 1.46107e-014 2.38542e-014
lhumerus 49.7879 -9.90279 86.7635
lradius 121.966
lwrist 36.6957
lhand -43.667 -30.5992
lfingers 7.12502
lthumb -16.5006 -1.28085
rfemur -0.17088 17.924 31.3388
rtibia 3.27591
rfoot -16.3782 -28.0699
rtoes 14.4019
lfemur -7.15929 -26.0749 -2.7777
ltibia 4.89471
lfoot -7.46189 20.7782
ltoes -19.0674
343
root -1.23237 17.6623 8.00383 6.39953 14.7358 -8.66436
lowerback 12.4397 0.621177 9.39802
upperback -9.4686 3.23955 2.48984
thorax -17.6914 0.551577 -3.26511
lowerneck -13.4911 -11.5946 -4.6759
upperneck 20.3394 -17.8614 11.2573
head 10.1991 -7.48006 2.2172
rclavicle -3.24764e-014 8.36883e-014
rhumerus 71.7294 36.1162 -64.039
rradius 94.6551
rwrist 17.0967
rhand -20.278 -35.2546
rfingers 7.12502
rthumb 6.07144 294.852
lclavicle -3.24764e-014 8.36883e-014
lhumerus 47.3064 -11.0256 88.2408
lradius 117.759
lwrist 37.7394
lhand -43.5187 -30.5161
lfingers 7.12502
lthumb -16.3578 -1.18594
rfemur -0.467939 17.7585 31.4398
rtibia 3.42592
rfoot -15.9444 -27.848
rtoes 13.5557
lfemur -7.72599 -26.0434 -2.26849
ltibia 5.08443
lfoot -7.18557 20.4236
ltoes -19.0099
344
root -1.21741 17.6786 7.95268 6.40455 15.1467 -8.99823
lowerback 12.8639 0.480361 9.1661
upperback -9.04625 3.05064 2.73546
thorax -17.4745 0.534362 -2.81841
lowerneck -13.4052 -11.5018 -4.83621
upperneck 19.7032 -17.7186 11.7683
head 10.0147 -7.40881 2.44469
rclavicle -3.14577e-014 2.04748e-014
rhumerus 67.2827 35.6492 -67.6069
rradius 91.772
rwrist 15.3975
rhand -20.3406 -36.455
rfingers 7.12502
rthumb 6.01103 293.65
lclavicle -3.14577e-014 2.04748e-014
lhumerus 44.6627 -12.0065 89.838
lradius 113.055
lwrist 38.7988
lhand -43.305 -30.0997
lfingers 7.12502
lthumb -16.152 -0.752721
rfemur -0.844808 17.6898 31.4719
rtibia 3.57561
rfoot -15.3598 -27.4997
rtoes 12.3586
lfemur -8.3199 -26.0802 -1.75434
ltibia 5.20488
lfoot -6.88563 20.2452
ltoes -18.8185
345
root -1.19997 17.6962 7.89932 6.51997 15.5064 -9.31664
lowerback 13.152 0.344988 8.91483
upperback -8.63033 2.84905 2.99315
thorax -17.1777 0.51613 -2.34023
lowerneck -13.3329 -11.3678 -5.0225
upperneck 19.1274 -17.5166 12.2712
head 9.85055 -7.31018 2.6804
rclavicle -2.59911e-014 -5.32743e-014
rhumerus 62.6466 35.0098 -71.1578
rradius 88.6251
rwrist 13.4792
rhand -20.3518 -38.1106
rfingers 7.12502
rthumb 6.00021 291.994
lclavicle -2.59911e-014 -5.32743e-014
lhumerus 41.9292 -12.7872 91.5065
lradius 107.848
lwrist 39.8052
lhand -43.0063 -29.1948
lfingers 7.12502
lthumb -15.8644 0.175306
rfemur -1.33515 17.7165 31.4072
rtibia 3.71517
rfoot -14.6473 -27.0214
rtoes 10.8146
lfemur -8.9825 -26.1904 -1.22863
ltibia 5.25919
lfoot -6.56379 20.2431
ltoes -18.5555
346
root -1.17863 17.7126 7.84402 6.7846 15.8078 -9.61073
lowerback 13.3123 0.234877 8.70016
upperback -8.27201 2.67402 3.22124
thorax -16.8645 0.500138 -1.92111
lowerneck -13.2559 -11.2203 -5.21291
upperneck 18.66 -17.3062 12.7569
head 9.72121 -7.20486 2.91118
rclavicle 1.02995e-014 -5.1684e-015
rhumerus 57.7742 34.1147 -74.7185
rradius 85.2004
rwrist 11.3794
rhand -20.1716 -40.1315
rfingers 7.12502
rthumb 6.17418 289.978
lclavicle 1.02995e-014 -5.1684e-015
lhumerus 39.1216 -13.4048 93.2105
lradius 102.106
lwrist 40.7253
lhand -42.54 -28.3996
lfingers 7.12502
lthumb -15.4153 1.00566
rfemur -1.9839 17.8075 31.2195
rtibia 3.84446
rfoot -13.8504 -26.3953
rtoes 8.93283
lfemur -9.75738 -26.3651 -0.680208
ltibia 5.25812
lfoot -6.22754 20.4162
ltoes -18.2674
347
root -1.15332 17.7261 7.78853 7.18537 16.0555 -9.86837
lowerback 13.3503 0.16045 8.53058
upperback -7.97321 2.54053 3.40424
thorax -16.5395 0.491298 -1.5883
lowerneck -13.1926 -11.0785 -5.40186
upperneck 18.3009 -17.1156 13.2228
head 9.6315 -7.10463 3.13042
rclavicle 1.43187e-014 2.70347e-014
rhumerus 52.7645 32.9194 -78.1807
rradius 81.495
rwrist 9.17625
rhand -19.7336 -42.3266
rfingers 7.12502
rthumb 6.59698 287.796
lclavicle 1.43187e-014 2.70347e-014
lhumerus 36.3078 -13.8799 94.9033
lradius 95.8324
lwrist 41.6186
lhand -42.0059 -27.7061
lfingers 7.12502
lthumb -14.9009 1.738
rfemur -2.74811 17.9552 30.9183
rtibia 3.92782
rfoot -13.0273 -25.6832
rtoes 6.76272
lfemur -10.6149 -26.5938 -0.12413
ltibia 5.19322
lfoot -5.89186 20.738
ltoes -17.9763
348
root -1.12437 17.735 7.73438 7.69041 16.2428 -10.0828
lowerback 13.3492 0.12752 8.37608
upperback -7.75582 2.4657 3.55846
thorax -16.2849 0.499553 -1.31143
lowerneck -13.1345 -10.9431 -5.59811
upperneck 18.0394 -16.9368 13.6444
head 9.57311 -7.00973 3.33356
rclavicle -1.11832e-014 2.96189e-014
rhumerus 47.7138 31.4704 -81.3923
rradius 77.5226
rwrist 7.01664
rhand -19.2107 -44.5477
rfingers 7.12502
rthumb 7.10177 285.591
lclavicle -1.11832e-014 2.96189e-014
lhumerus 33.5001 -14.2121 96.5704
lradius 89.0727
lwrist 42.5533
lhand -41.5404 -26.982
lfingers 7.12502
lthumb -14.4524 2.49478
rfemur -3.56944 18.1492 30.53
rtibia 3.93636
rfoot -12.2711 -24.9689
rtoes 4.56677
lfemur -11.5035 -26.8898 0.420051
ltibia 5.05949
lfoot -5.56781 21.2048
ltoes -17.7122
349
root -1.09299 17.7386 7.68385 8.24587 16.3655 -10.2544
lowerback 13.2969 0.134444 8.28226
upperback -7.5681 2.44486 3.65083
thorax -16.0259 0.519444 -1.1528
lowerneck -13.0728 -10.8048 -5.79104
upperneck 17.7755 -16.7623 14.1025
head 9.51642 -6.91359 3.54821
rclavicle 6.53784e-014 -2.16675e-014
rhumerus 42.8006 29.7835 -84.2726
rradius 73.3148
rwrist 5.04115
rhand -18.5603 -46.7119
rfingers 7.12502
rthumb 7.72955 283.449
lclavicle 6.53784e-014 -2.16675e-014
lhumerus 30.8245 -14.4514 98.1085
lradius 81.8832
lwrist 43.6423
lhand -41.1697 -26.1819
lfingers 7.12502
lthumb -14.0952 3.32005
rfemur -4.3532 18.4195 30.1089
rtibia 3.82738
rfoot -11.6723 -24.4054
rtoes 2.73426
lfemur -12.3418 -27.2809 0.933854
ltibia 4.84364
lfoot -5.27344 21.8103
ltoes -17.4456
350
root -1.06055 17.7373 7.63939 8.80803 16.43 -10.3855
lowerback 13.1006 0.18081 8.22854
upperback -7.32289 2.45555 3.69823
thorax -15.5987 0.551997 -1.07645
lowerneck -13.0589 -10.6649 -5.96577
upperneck 17.4043 -16.5808 14.6095
head 9.43341 -6.812 3.77511
rclavicle 2.05183e-014 -1.15295e-014
rhumerus 38.2265 27.973 -86.7284
rradius 68.9079
rwrist 3.13893
rhand -17.7854 -49.01
rfingers 7.12502
rthumb 8.47741 281.18
lclavicle 2.05183e-014 -1.15295e-014
lhumerus 28.4427 -14.6297 99.4744
lradius 74.3849
lwrist 44.8518
lhand -41.0014 -24.8229
lfingers 7.12502
lthumb -13.9329 4.69028
rfemur -5.01743 18.8102 29.7086
rtibia 3.56422
rfoot -11.2702 -24.1599
rtoes 1.50978
lfemur -13.0742 -27.768 1.40846
ltibia 4.54341
lfoot -5.03133 22.5173
ltoes -17.1415
351
root -1.02849 17.7318 7.60318 9.3504 16.4475 -10.4787
lowerback 13.1717 0.215854 8.16468
upperback -7.22293 2.49202 3.71649
thorax -15.5203 0.580644 -1.03306
lowerneck -13.0431 -10.5323 -6.07512
upperneck 17.1136 -16.4028 14.9722
head 9.35671 -6.71819 3.94295
rclavicle -2.04624e-014 1.66979e-014
rhumerus 33.5941 26.2339 -89.0531
rradius 64.3681
rwrist 0.913653
rhand -16.8801 -51.3022
rfingers 7.12502
rthumb 9.35099 278.925
lclavicle -2.04624e-014 1.66979e-014
lhumerus 25.9892 -14.6283 100.751
lradius 66.7357
lwrist 46.1496
lhand -40.8682 -22.9622
lfingers 7.12502
lthumb -13.8046 6.55977
rfemur -5.5156 19.3821 29.3666
rtibia 3.14212
rfoot -11.1036 -24.3632
rtoes 1.09458
lfemur -13.6761 -28.3282 1.84132
ltibia 4.1662
lfoot -4.85295 23.2762
ltoes -16.8063
352
root -0.997151 17.7241 7.57631 9.86911 16.4383 -10.5212
lowerback 13.2096 0.258339 8.02206
upperback -7.10525 2.52054 3.75935
thorax -15.4029 0.617073 -0.916086
lowerneck -13.209 -10.4456 -6.13887
upperneck 16.8811 -16.2627 15.1525
head 9.31513 -6.64406 4.0273
rclavicle -2.55935e-014 -3.04141e-014
rhumerus 29.1712 24.6143 -91.0979
rradius 59.8041
rwrist -1.90125
rhand -15.991 -53.6389
rfingers 7.12502
rthumb 10.2088 276.629
lclavicle -2.55935e-014 -3.04141e-014
lhumerus 23.7053 -14.4217 102.011
lradius 59.09
lwrist 47.3228
lhand -40.8155 -20.5005
lfingers 7.12502
lthumb -13.7538 9.02493
rfemur -5.84434 20.1479 29.0768
rtibia 2.58488
rfoot -11.1719 -25.0458
rtoes 1.50853
lfemur -14.1505 -28.9384 2.21046
ltibia 3.72713
lfoot -4.7358 24.0383
ltoes -16.4463
